<?xml version="1.0" standalone="no"?>
<!DOCTYPE svg PUBLIC "-//W3C//DTD SVG 20010904//EN"
 "http://www.w3.org/TR/2001/REC-SVG-20010904/DTD/svg10.dtd">
<svg version="1.0" xmlns="http://www.w3.org/2000/svg"
 width="100.000000pt" height="100.000000pt" viewBox="0 0 100.000000 100.000000"
 preserveAspectRatio="xMidYMid meet">
<metadata>
Created by potrace 1.11, written by Peter Selinger 2001-2013
</metadata>
<g transform="translate(0.000000,100.000000) scale(0.100000,-0.100000)"
fill="#000000" stroke="none">
<path d="M210 990 c14 -4 44 -8 68 -9 23 -1 42 -4 42 -9 0 -4 -30 -5 -66 -2
-74 6 -84 -1 -84 -63 0 -39 0 -39 148 -53 58 -5 72 -4 72 7 0 8 9 20 20 27 22
14 27 50 8 57 -7 2 -30 6 -52 10 -21 3 -36 9 -32 12 3 3 81 -2 173 -12 92 -9
241 -25 331 -34 l162 -17 0 48 0 48 -407 -1 c-225 -1 -397 -5 -383 -9z"/>
<path d="M463 935 c-3 -8 -8 -13 -12 -11 -4 3 -5 -14 -2 -37 6 -39 8 -42 38
-43 18 0 36 -3 39 -7 11 -11 52 -8 59 4 5 6 11 4 19 -7 17 -22 36 -10 36 23 0
15 7 35 16 45 21 22 13 25 -76 32 -36 3 -75 7 -88 10 -15 3 -25 0 -29 -9z"/>
<path d="M0 449 c0 -397 1 -421 18 -416 17 5 252 93 282 105 8 3 22 7 30 8 8
1 53 18 98 38 87 38 112 43 112 25 0 -5 -4 -8 -8 -5 -5 3 -19 -2 -31 -11 -18
-12 -21 -21 -16 -42 10 -38 24 -51 56 -51 20 0 29 5 29 16 0 16 21 15 27 -2 4
-12 -59 -44 -87 -44 -10 0 -21 -4 -24 -9 -3 -4 -27 -14 -53 -21 -27 -7 -57
-19 -68 -27 -17 -11 6 -13 153 -13 94 0 172 2 172 5 0 3 -27 50 -60 106 -33
55 -60 103 -60 105 0 3 -17 33 -39 67 -21 34 -52 87 -68 117 -17 30 -60 106
-97 168 -36 62 -66 115 -66 117 0 2 -16 32 -36 65 -20 34 -34 63 -32 65 2 2
39 -1 83 -7 l80 -10 110 -191 c61 -105 119 -207 130 -226 11 -20 65 -114 119
-208 l98 -173 74 0 74 0 0 120 c0 71 -4 120 -10 120 -8 0 -131 -44 -182 -65
-12 -5 -24 8 -52 55 -40 68 -41 70 -25 70 6 0 69 21 140 47 l129 48 0 186 0
187 -77 6 c-43 4 -154 16 -248 26 -93 11 -264 28 -380 39 -116 11 -229 23
-252 26 l-43 5 0 -421z"/>
<path d="M517 445 c-20 -14 -37 -27 -37 -29 0 -11 77 -154 89 -167 10 -10 32
-15 61 -15 57 1 62 19 24 84 -16 26 -27 50 -26 55 1 4 -1 7 -6 7 -4 0 -18 20
-32 45 -14 25 -27 45 -30 45 -3 0 -22 -11 -43 -25z"/>
<path d="M676 213 c-11 -3 -26 -11 -33 -18 -17 -18 -17 -62 1 -72 8 -4 15 -17
17 -28 3 -11 13 -24 24 -30 13 -6 19 -18 17 -33 -4 -26 0 -27 39 -6 17 8 37
13 45 10 23 -9 17 34 -11 70 -14 18 -25 37 -25 43 0 6 -4 11 -10 11 -5 0 -10
8 -10 18 0 18 -18 43 -29 41 -4 -1 -15 -4 -25 -6z"/>
<path d="M405 162 c-6 -5 -43 -19 -82 -32 -40 -13 -73 -27 -73 -31 0 -5 -7 -6
-15 -3 -18 7 -20 -19 -4 -64 9 -27 15 -31 45 -30 19 1 34 5 34 10 0 5 4 7 9 3
5 -3 12 -1 15 4 3 5 30 17 59 26 48 15 54 20 65 57 10 30 10 43 1 54 -13 16
-40 18 -54 6z"/>
</g>
</svg>
